<svg width="120" height="28" viewBox="0 0 120 28" fill="none" xmlns="http://www.w3.org/2000/svg">
<path d="M13.9861 17.4858V0.753754H19.3599V16.797C19.3599 17.9264 19.6045 18.2022 20.7439 18.2022H21.2061L21.8388 22.6291C21.4318 22.6839 19.7669 22.8042 18.7627 22.8042C15.8043 22.8042 13.9862 21.7572 13.9862 17.4858" fill="#7D7D7D"/>
<path d="M66.4125 15.0336C66.4125 13.1878 66.0871 11.562 63.7528 11.562C61.2562 11.562 60.5227 12.8572 60.5227 15.0336C60.5227 17.21 61.0659 18.3954 63.7528 18.3954C66.0328 18.3954 66.4125 16.8794 66.4125 15.0336ZM55.1489 7.26598L59.328 6.93515L59.7361 8.20007C60.5769 7.40034 62.0431 6.60162 65.191 6.60162C70.6199 6.60162 71.8676 10.4874 71.8676 14.8127C71.8676 19.1665 70.4837 22.9973 64.8654 22.9973C62.3689 22.9973 61.2015 22.4185 60.5229 21.7846V27.2951H55.1491L55.1489 7.26598Z" fill="#7D7D7D"/>
<path d="M91.04 7.26602L95.2191 6.93518L95.7623 8.58576C96.4408 7.64861 98.3139 6.84989 100.54 6.76749V12.0186C96.957 12.0452 96.4137 13.1319 96.4137 15.2818V22.749H91.04V7.26602Z" fill="#7D7D7D"/>
<path d="M102.038 6.77634H104.806L105.674 3.57098L109.827 2.66127V6.77634H113.22V12.0246H109.827V16.5774C109.827 17.6518 109.991 18.2023 111.672 18.2023H113.22V22.7485C112.406 22.8033 111.51 22.8311 110.506 22.8311C105.973 22.8311 104.48 21.371 104.48 17.4038V12.0247H102.038V6.77634Z" fill="#7D7D7D"/>
<path d="M119.185 22.7455H114.709V18.2013H119.185V22.7455Z" fill="#7D7D7D"/>
<path d="M0.708252 6.96006H3.63871V6.65694C3.63871 2.68969 5.1049 0.704666 10.1529 0.704666C11.4828 0.704666 11.7264 0.731356 12.3778 0.787824V5.22398H10.8855C9.33908 5.22398 9.01344 5.60972 9.01344 6.62921V6.96006H12.3778V11.5886H9.01344V22.7482H3.63871V11.5886H0.708252V6.96006Z" fill="#7D7D7D"/>
<path d="M30.2549 11.0768C32.4668 11.0768 32.6291 12.1447 32.7094 13.4323H27.1798C27.3956 11.9258 28.0972 11.0768 30.2549 11.0768ZM33.5363 18.0372C32.6478 18.5651 32.1895 18.6834 30.4163 18.6834C28.3128 18.6834 27.5036 17.9234 27.2339 16.6367H37.5651C37.7537 11.0768 37.2954 6.58559 30.4163 6.58559C23.511 6.58559 22.0542 10.4467 22.0542 14.7465C22.0542 19.1562 23.511 23.0382 30.4163 23.0382C33.1395 23.0382 34.8569 22.5256 36.6795 21.3232L33.5363 18.0372Z" fill="#7D7D7D"/>
<path d="M48.22 22.7554L45.5845 18.9313L42.9498 22.7554H36.9424L42.5662 14.6212L37.4585 7.27131L43.5312 7.2666L45.6105 10.2664L47.6918 7.2675L53.8317 7.27131L48.6269 14.5852L54.2675 22.7554H48.22Z" fill="#7D7D7D"/>
<path d="M84.4336 14.9785C84.4336 12.9944 83.9454 11.5618 81.4211 11.5618C78.8976 11.5618 78.4086 12.9944 78.4086 14.9785C78.4086 16.9351 78.8974 18.3952 81.4211 18.3952C83.9456 18.3952 84.4336 16.9351 84.4336 14.9785ZM72.9805 14.8128C72.9805 9.57883 75.3418 6.60172 81.4211 6.60172C87.5005 6.60172 89.8346 9.57883 89.8346 14.8128C89.8346 20.0488 87.5005 23.0524 81.4211 23.0524C75.3418 23.0524 72.9805 20.0488 72.9805 14.8128Z" fill="#7D7D7D"/>
</svg>
