<svg width="20" height="16" viewBox="0 0 20 16" fill="none" xmlns="http://www.w3.org/2000/svg">
<path d="M5.96476 1.58311C4.65519 1.84445 3.35452 2.12863 2.06388 2.4354C1.94603 2.46304 1.84127 2.5141 1.76153 2.58275C1.6818 2.6514 1.63029 2.73489 1.61288 2.8237C0.851133 6.96268 2.61113 9.98253 4.71076 11.9719C5.59972 12.8226 6.65969 13.572 7.85538 14.1952C8.33113 14.4381 8.75188 14.6134 9.08326 14.7259C9.24826 14.7826 9.38301 14.8205 9.48613 14.8434C9.53123 14.8548 9.57773 14.8632 9.62501 14.8683C9.67172 14.8628 9.71772 14.8544 9.76251 14.8434C9.86701 14.8205 10.0018 14.7826 10.1668 14.7259C10.4968 14.6134 10.9189 14.4371 11.3946 14.1952C12.5903 13.572 13.6503 12.8225 14.5393 11.9719C16.6389 9.98353 18.3989 6.96268 17.6371 2.8237C17.6199 2.73485 17.5684 2.6513 17.4887 2.58263C17.4089 2.51396 17.3041 2.46294 17.1861 2.4354C16.291 2.22332 14.7799 1.87782 13.2853 1.5841C11.759 1.28441 10.3551 1.06237 9.62501 1.06237C8.89626 1.06237 7.49101 1.28441 5.96476 1.5841V1.58311ZM5.59901 0.557572C7.09088 0.263851 8.67626 0 9.62501 0C10.5738 0 12.1591 0.263851 13.651 0.557572C15.1773 0.856271 16.7159 1.20973 17.6206 1.4238C17.9989 1.51426 18.3343 1.68015 18.5882 1.90242C18.8421 2.12469 19.0043 2.39431 19.0561 2.68033C19.8756 7.13792 17.974 10.4415 15.6668 12.627C14.6884 13.5619 13.5217 14.3852 12.2059 15.0694C11.7509 15.3061 11.2688 15.5143 10.7649 15.6917C10.3799 15.8231 9.96601 15.9306 9.62501 15.9306C9.28401 15.9306 8.87151 15.8231 8.48513 15.6917C7.98121 15.5143 7.49913 15.3061 7.04413 15.0694C5.7283 14.3852 4.56168 13.5619 3.58326 12.627C1.27601 10.4415 -0.625618 7.13792 0.193882 2.68033C0.245702 2.39431 0.407892 2.12469 0.661818 1.90242C0.915745 1.68015 1.25111 1.51426 1.62938 1.4238C2.94277 1.11197 4.26637 0.82314 5.59901 0.557572Z" fill="#12C143"/>
<path d="M8.25146 10.9523C8.25146 10.6882 8.39633 10.435 8.65419 10.2482C8.91206 10.0615 9.26179 9.95663 9.62647 9.95663C9.99114 9.95663 10.3409 10.0615 10.5987 10.2482C10.8566 10.435 11.0015 10.6882 11.0015 10.9523C11.0015 11.2164 10.8566 11.4696 10.5987 11.6563C10.3409 11.8431 9.99114 11.948 9.62647 11.948C9.26179 11.948 8.91206 11.8431 8.65419 11.6563C8.39633 11.4696 8.25146 11.2164 8.25146 10.9523ZM8.38759 4.97333C8.36928 4.84771 8.38764 4.72072 8.44149 4.60058C8.49534 4.48044 8.58346 4.36983 8.70015 4.27595C8.81684 4.18206 8.95949 4.10699 9.11883 4.0556C9.27817 4.00422 9.45066 3.97766 9.62509 3.97766C9.79952 3.97766 9.97201 4.00422 10.1313 4.0556C10.2907 4.10699 10.4333 4.18206 10.55 4.27595C10.6667 4.36983 10.7548 4.48044 10.8087 4.60058C10.8625 4.72072 10.8809 4.84771 10.8626 4.97333L10.3813 8.46512C10.3618 8.60049 10.2737 8.72583 10.134 8.81693C9.99437 8.90803 9.81306 8.95845 9.62509 8.95845C9.43712 8.95845 9.25581 8.90803 9.11616 8.81693C8.9765 8.72583 8.88839 8.60049 8.86884 8.46512L8.38759 4.97333Z" fill="#12C143"/>
</svg>
