<svg width="127" height="24" viewBox="0 0 127 24" fill="none" xmlns="http://www.w3.org/2000/svg">
<path d="M120.144 20.5987C120.144 18.7203 121.651 17.1963 123.507 17.1963C125.363 17.1963 126.868 18.7203 126.868 20.5987C126.868 22.477 125.363 24 123.507 24C121.651 24 120.144 22.477 120.144 20.5987Z" fill="#7D7D7D"/>
<path d="M12.9055 11.5885C12.9055 9.4335 12.494 7.83473 11.6709 6.79317C10.8467 5.7526 9.59833 5.2328 7.92001 5.2328H6.13464V18.4108H7.50059C9.36481 18.4108 10.7309 17.8517 11.6007 16.7293C12.4696 15.609 12.9055 13.8951 12.9055 11.5885ZM19.2725 11.364C19.2725 15.2901 18.2295 18.3153 16.1435 20.4388C14.0575 22.5632 11.125 23.6255 7.34497 23.6255H0V0.0998535H7.85768C11.5024 0.0998535 14.3162 1.0656 16.2991 2.99613C18.2811 4.92763 19.2725 7.71563 19.2725 11.364Z" fill="#7D7D7D"/>
<path d="M39.6182 23.6252H45.4628V0.00105286H39.6182V23.6252Z" fill="#7D7D7D"/>
<path d="M53.6733 14.8133C53.6733 16.3195 53.8679 17.4683 54.2561 18.2578C54.6454 19.0483 55.2972 19.4432 56.2137 19.4432C57.1205 19.4432 57.7617 19.0483 58.1353 18.2578C58.5089 17.4683 58.6947 16.3195 58.6947 14.8133C58.6947 13.3149 58.5059 12.1847 58.1276 11.4218C57.7481 10.6568 57.1012 10.2739 56.1837 10.2739C55.2866 10.2739 54.6454 10.6549 54.2561 11.4129C53.8679 12.1719 53.6733 13.3051 53.6733 14.8133ZM64.6436 14.8133C64.6436 17.683 63.9001 19.9217 62.4095 21.5263C60.9199 23.132 58.8349 23.9352 56.1544 23.9352C53.5839 23.9352 51.5376 23.1142 50.0188 21.4722C48.4981 19.83 47.7383 17.6112 47.7383 14.8133C47.7383 11.9524 48.4827 9.72949 49.9732 8.14451C51.4638 6.55953 53.5536 5.76704 56.2448 5.76704C57.9077 5.76704 59.3788 6.13426 60.6534 6.86769C61.929 7.60111 62.9137 8.65153 63.6054 10.0199C64.2982 11.3864 64.6436 12.9851 64.6436 14.8133Z" fill="#7D7D7D"/>
<path d="M66.9644 23.6252H72.81V14.5839V6.07718H66.9644V23.6252Z" fill="#7D7D7D"/>
<path d="M66.9644 3.95457H72.81V0H66.9644V3.95457Z" fill="#7D7D7D"/>
<path d="M84.6527 19.1493C85.4419 19.1493 86.3816 18.9465 87.4782 18.544V22.9592C86.69 23.3097 85.941 23.5607 85.2287 23.7093C84.5165 23.86 83.6807 23.9348 82.7243 23.9348C80.7618 23.9348 79.347 23.4357 78.4781 22.4395C77.6132 21.4432 77.1793 19.9133 77.1793 17.8488V10.6151H75.1323V6.07868H77.1793V1.59741L83.0697 0.560745V6.07868H86.7992V10.6151H83.0697V17.4453C83.0697 18.5813 83.598 19.1493 84.6527 19.1493Z" fill="#7D7D7D"/>
<path d="M98.1818 19.1493C98.9708 19.1493 99.9109 18.9465 101.007 18.544V22.9592C100.22 23.3097 99.4699 23.5607 98.7578 23.7093C98.0446 23.86 97.2117 23.9348 96.2532 23.9348C94.2909 23.9348 92.8763 23.4357 92.0094 22.4395C91.1424 21.4432 90.7085 19.9133 90.7085 17.8488V10.6151H88.6604V6.07868H90.7085V1.52949L96.5978 0.560745V6.07868H100.329V10.6151H96.5978V17.4453C96.5978 18.5813 97.1261 19.1493 98.1818 19.1493Z" fill="#7D7D7D"/>
<path d="M108.383 12.6754C108.463 11.7146 108.734 11.0107 109.197 10.5608C109.663 10.1119 110.237 9.88744 110.924 9.88744C111.673 9.88744 112.268 10.1394 112.71 10.6474C113.155 11.1524 113.386 11.8288 113.405 12.6754H108.383ZM116.626 7.83584C115.237 6.45759 113.265 5.76746 110.715 5.76746C108.035 5.76746 105.972 6.55994 104.526 8.14492C103.081 9.72991 102.358 12.004 102.358 14.9673C102.358 17.837 103.14 20.05 104.698 21.6035C106.258 23.157 108.448 23.9347 111.269 23.9347C112.623 23.9347 113.789 23.8412 114.766 23.6552C115.737 23.471 116.677 23.1382 117.588 22.6578L116.69 18.7033C116.028 18.977 115.397 19.1877 114.802 19.3265C113.942 19.5282 112.998 19.6297 111.971 19.6297C110.844 19.6297 109.955 19.351 109.303 18.7938C108.651 18.2357 108.303 17.4658 108.263 16.4853H118.711V13.7908C118.711 11.1987 118.016 9.21311 116.626 7.83584Z" fill="#7D7D7D"/>
<path d="M27.0296 12.6754C27.1095 11.7146 27.3808 11.0107 27.844 10.5608C28.308 10.1119 28.8832 9.88744 29.5711 9.88744C30.3185 9.88744 30.9138 10.1394 31.3565 10.6474C31.8011 11.1524 32.0317 11.8288 32.0523 12.6754H27.0296ZM35.2736 7.83584C33.8834 6.45759 31.913 5.76746 29.3619 5.76746C26.6804 5.76746 24.6186 6.55994 23.1737 8.14492C21.7289 9.72991 21.0051 12.004 21.0051 14.9673C21.0051 17.837 21.7854 20.05 23.3461 21.6035C24.9047 23.157 27.0949 23.9347 29.9156 23.9347C31.2699 23.9347 32.4355 23.8412 33.4123 23.6552C34.3833 23.471 35.3233 23.1382 36.2361 22.6578L35.337 18.7033C34.6743 18.977 34.0438 19.1877 33.4493 19.3265C32.5873 19.5282 31.6445 19.6297 30.6169 19.6297C29.4912 19.6297 28.6011 19.351 27.9493 18.7938C27.2963 18.2357 26.9499 17.4658 26.9102 16.4853H37.3578V13.7908C37.3578 11.1987 36.663 9.21311 35.2736 7.83584Z" fill="#7D7D7D"/>
</svg>
