<svg width="77" height="27" viewBox="0 0 77 27" fill="none" xmlns="http://www.w3.org/2000/svg">
<path d="M75.4574 2.85864C75.2084 2.85864 74.9738 2.9244 74.7689 3.03999C74.6459 3.10929 74.5338 3.19667 74.4357 3.29846C74.1738 3.57011 74.0117 3.94507 74.0117 4.35853C74.0117 4.60027 74.0674 4.8261 74.1644 5.02554C74.1788 5.05528 74.1944 5.08425 74.2107 5.11277C74.2488 5.17914 74.2905 5.24291 74.3379 5.30194C74.3964 5.37444 74.4616 5.44114 74.5329 5.50076C74.7817 5.70956 75.1029 5.83357 75.4574 5.83357C76.2681 5.83357 76.9276 5.17177 76.9276 4.35868C76.9276 3.53147 76.2681 2.85864 75.4574 2.85864Z" fill="#7D7D7D"/>
<path d="M35.5325 4.35885C35.5325 3.50421 36.2029 2.80899 37.0271 2.80899C37.8645 2.80899 38.5461 3.50421 38.5461 4.35885C38.5461 5.19954 37.8645 5.88373 37.0271 5.88373C36.1891 5.88373 35.5325 5.21396 35.5325 4.35885ZM27.1503 18.8779C26.7278 19.4981 25.1277 21.0094 24.0694 21.0094C23.0221 21.0094 22.4452 20.2967 22.4452 19.0028C22.4452 18.6565 22.4588 18.2276 22.4834 17.7792C21.4485 19.0963 19.3777 21.0341 17.8345 21.0341C15.5807 21.0341 14.5719 19.5128 14.5719 18.0048C14.5719 16.0621 16.561 14.3672 20.8317 12.6714L22.7084 11.9331C22.5832 8.86373 21.7405 8.26125 20.3286 8.26125C18.7459 8.26125 18.1692 9.39797 17.7059 10.3113C17.5896 10.541 17.4797 10.7574 17.3645 10.9285C17.0813 11.3456 16.7678 11.4795 16.0741 11.4795C15.34 11.4795 14.8657 11.1618 14.8657 10.6705C14.8657 10.3115 15.1184 9.76283 15.8277 9.29985C16.7983 8.65614 18.9214 7.56634 20.72 7.56634C23.5333 7.56634 25.0827 9.26229 25.0827 12.3419C25.0827 13.2958 25.0202 14.6043 24.9653 15.7588C24.9234 16.6339 24.8872 17.3895 24.8872 17.8052C24.8872 19.0914 25.0314 19.6905 25.3411 19.6905C25.578 19.6905 26.1006 19.1063 26.4595 18.4405C26.5841 18.2365 26.823 18.1777 27.0169 18.301H27.0171C27.2163 18.4281 27.2736 18.6761 27.1503 18.8779ZM22.6823 12.6232L21.0258 13.3566C17.4811 14.882 16.7429 15.5789 16.7429 17.2813C16.7429 18.5116 17.9841 19.4659 19.0534 19.4659C19.596 19.4659 20.3813 18.9969 21.2141 18.1796C21.8961 17.51 22.4818 16.7111 22.5858 16.3214L22.5757 16.2295C22.6125 15.7838 22.6823 14.606 22.6823 12.7911V12.6232ZM12.315 7.97227V10.1458V11.0328V19.0311C12.315 23.6537 8.46783 27 5.88398 27C3.80691 27 2.24039 26.1381 2.24039 25.3676C2.24039 24.6309 2.88496 23.9848 3.61999 23.9848C4.09644 23.9848 4.6094 24.2666 5.20393 24.5933C5.8993 24.9748 6.68557 25.407 7.50623 25.407C8.27131 25.407 10.0613 25.407 10.0613 20.4533V19.9132C9.0095 20.5014 7.89403 20.8599 6.59601 20.8599C2.71097 20.8596 0 18.2575 0 14.5317C0 10.7096 3.07954 7.71596 7.00935 7.71596C8.33592 7.71596 9.5235 8.03085 10.5113 8.59421C10.5544 8.52952 10.599 8.46759 10.6364 8.41133C11.1247 7.6758 11.6365 7.56281 11.9236 7.56281C12.3009 7.56266 12.315 7.87095 12.315 7.97227ZM10.0613 10.7429C9.31 9.38524 8.16358 8.41976 6.69759 8.41976C4.83176 8.41976 2.60911 9.40824 2.60911 14.117C2.60911 17.0734 4.26277 20.1311 7.03129 20.1311C8.3586 20.1311 9.4604 19.5606 10.0614 18.498V17.5331V10.7429H10.0613ZM73.36 14.113C73.36 17.3748 70.6344 21.0092 66.7235 21.0092C63.0174 21.0092 60.4292 18.3478 60.4292 14.537C60.4292 10.628 63.3659 7.56619 67.115 7.56619C70.792 7.56634 73.36 10.2584 73.36 14.113ZM70.9185 14.5122C70.9185 11.518 69.3522 8.28624 66.8213 8.28624C65.0415 8.28624 62.9198 9.29724 62.9198 14.113C62.9198 17.1367 64.4983 20.2642 67.1392 20.2642C69.5411 20.2642 70.9185 18.1676 70.9185 14.5122ZM45.9765 20.0723C44.8026 20.0723 44.7692 20.0722 44.7692 17.5558V0.417362C44.7692 0.328601 44.7194 0.202282 44.5404 0.104325C44.424 0.0405519 44.128 -0.0577133 43.9789 0.0437711C43.2542 0.456913 42.3421 0.910374 41.0983 1.13925C40.9895 1.15305 40.8936 1.2041 40.8311 1.28289C40.7734 1.35586 40.7457 1.448 40.7565 1.53584C40.7679 1.63042 40.8199 1.71397 40.9 1.76502C40.9714 1.8104 41.0588 1.8268 41.1628 1.81362C41.67 1.72041 42.0409 1.66967 42.2087 1.81316C42.406 1.98148 42.5156 2.49656 42.5156 3.53548V17.5558C42.5156 20.0722 42.4072 20.0723 41.6131 20.0723C41.3727 20.0723 41.2305 20.2474 41.2305 20.4122C41.2305 20.5768 41.3538 20.7521 41.5942 20.7521C42.0025 20.7521 42.581 20.7358 43.0943 20.7216L43.1149 20.721C43.4581 20.7113 43.7818 20.7021 43.9358 20.7021C44.0853 20.7021 44.3351 20.7105 44.6354 20.7208C45.0424 20.7349 45.5493 20.7521 45.9646 20.7521C46.2048 20.7521 46.3404 20.5768 46.3404 20.4122C46.3402 20.2474 46.2167 20.0723 45.9765 20.0723ZM32.6269 20.0723C31.4531 20.0723 31.3969 20.0722 31.3969 17.5558V0.417362C31.3969 0.328601 31.3697 0.202282 31.1907 0.104325C31.0742 0.0405519 30.7893 -0.0575601 30.6405 0.0439245C29.9157 0.457067 29.0095 0.910528 27.7654 1.1394C27.6566 1.1532 27.5634 1.20425 27.5011 1.28305C27.4432 1.35602 27.417 1.44815 27.428 1.53599C27.4394 1.63058 27.4925 1.71413 27.5722 1.76517C27.6432 1.8104 27.7307 1.82695 27.8354 1.81377C28.343 1.72026 28.6907 1.66982 28.8588 1.81331C29.0562 1.98163 29.1433 2.49671 29.1433 3.53563V17.556C29.1433 20.0724 29.0577 20.0724 28.2636 20.0724C28.0232 20.0724 27.8922 20.2474 27.8922 20.4122C27.8922 20.577 28.021 20.7523 28.2614 20.7523C28.6697 20.7523 29.2512 20.736 29.7645 20.7218L29.7865 20.7212C30.1296 20.7114 30.454 20.7023 30.608 20.7023C30.7577 20.7023 31.0077 20.7107 31.3081 20.721C31.7152 20.7349 32.2218 20.7523 32.6373 20.7523C32.8775 20.7523 33.0019 20.577 33.0019 20.4122C33.0018 20.2474 32.8671 20.0723 32.6269 20.0723ZM59.4732 16.7372C58.4312 19.5116 55.9513 21.0092 53.2921 21.0092C49.1532 21.0092 47.2694 18.1138 47.2694 15.0891C47.2694 11.263 50.4267 7.56619 54.6454 7.56619C57.4047 7.56619 58.9169 9.19485 58.9169 10.927C58.9169 12.3488 58.2535 12.7883 57.4047 12.7883L49.4186 12.8141C49.3921 13.0985 49.3655 13.4087 49.3655 13.7189C49.3655 17.2348 51.4084 19.2771 54.1944 19.2771C56.3408 19.2771 57.63 18.5158 58.9962 16.4907C59.0559 16.4022 59.1768 16.3749 59.2687 16.4309L59.3907 16.5051C59.4701 16.5539 59.5056 16.6512 59.4732 16.7372ZM49.5511 12.1422C52.1248 12.1163 53.7697 12.0905 55.1495 11.9611C55.6004 11.9095 55.9985 11.806 56.1843 11.6251C56.3699 11.4441 56.4759 11.2115 56.4759 10.7979C56.4759 9.66041 55.7065 8.67808 53.7697 8.67808C51.6736 8.67791 50.0818 10.0224 49.5511 12.1422ZM39.5367 20.0723C38.3743 20.0723 38.3085 19.9222 38.3085 17.7804V7.97612C38.3085 7.88721 38.2552 7.76057 38.0753 7.66262C37.9827 7.61218 37.6714 7.49522 37.495 7.61449C36.5998 8.24668 35.746 8.72468 34.5076 9.00276C34.4168 9.02576 34.3403 9.07206 34.2902 9.13629C34.229 9.21416 34.2062 9.31288 34.2293 9.40733C34.2496 9.48919 34.3034 9.56231 34.378 9.60784C34.4385 9.64493 34.5405 9.68111 34.679 9.64539C35.2101 9.52643 35.5146 9.48306 35.674 9.61382C35.8572 9.76389 35.9046 10.2284 35.9046 11.1195V17.7806C35.9046 19.9224 35.8557 20.0724 34.6702 20.0724C34.43 20.0724 34.3174 20.2474 34.3174 20.4122C34.3174 20.577 34.4556 20.7523 34.6958 20.7523C35.1039 20.7523 35.7289 20.7362 36.2767 20.7218L36.3034 20.7212C36.6706 20.7114 37.0183 20.7023 37.1728 20.7023C37.3272 20.7023 37.6519 20.7114 37.9954 20.7212L38.0182 20.7218C38.5312 20.736 39.1129 20.7523 39.5208 20.7523C39.7612 20.7523 39.8987 20.577 39.8987 20.4122C39.8985 20.2474 39.777 20.0723 39.5367 20.0723Z" fill="#7D7D7D"/>
</svg>
