<svg width="108" height="27" viewBox="0 0 108 27" fill="none" xmlns="http://www.w3.org/2000/svg">
<path fill-rule="evenodd" clip-rule="evenodd" d="M69.297 19.1066C66.1035 19.1066 63.5047 16.3898 63.5047 13.0444C63.5047 9.69889 66.1035 6.97781 69.297 6.97781C72.4907 6.97781 75.0936 9.70311 75.0936 13.0444C75.0936 16.3856 72.4948 19.1066 69.3054 19.1066H69.297ZM69.297 5.18484C65.1079 5.18484 61.7034 8.7117 61.7034 13.0528C61.7034 17.3939 65.112 20.9207 69.297 20.9207C73.482 20.9207 76.8908 17.3897 76.8908 13.0528C76.8908 8.71592 73.482 5.18484 69.297 5.18484ZM53.6372 5.60672H55.5694L48.4312 23.9963C48.0911 24.8831 47.4893 25.6455 46.7057 26.1819C45.9219 26.7186 44.9934 27.0037 44.0437 27H43.0312V25.1944H44.0606C44.6466 25.1966 45.2194 25.0207 45.7031 24.69C46.1869 24.3592 46.5585 23.8892 46.7691 23.3422L47.8701 20.5072L42.0694 5.61094H44.0016L48.8194 18.0183L53.6372 5.60672ZM108 20.4482H105.566L99.0688 13.2764L98.3854 13.9219V20.4482H96.5839V0H98.3854V11.7281L105.005 5.64891H107.359L100.406 12.0572L108 20.4482ZM80.8986 13.0444C80.8986 16.3898 83.4932 19.1066 86.691 19.1066C87.8434 19.0912 88.965 18.7332 89.9132 18.078C90.8614 17.4229 91.593 16.5004 92.0151 15.4279H93.9261C93.4646 16.9953 92.5131 18.3735 91.2109 19.3605C89.9089 20.3475 88.3247 20.8914 86.691 20.9123C82.5017 20.9123 79.0972 17.3812 79.0972 13.0444C79.0972 8.70748 82.506 5.17641 86.691 5.17641C88.3397 5.19799 89.9374 5.75181 91.2458 6.75533C92.5541 7.75884 93.5033 9.15833 93.9514 10.7451H92.0445C91.6348 9.65152 90.9045 8.70696 89.9494 8.03484C88.9944 7.36275 87.8587 6.99435 86.691 6.97781C83.4932 6.97781 80.8986 9.69889 80.8986 13.0444ZM57.3201 20.4482H59.1257V0H57.3201V20.4482ZM7.59373 19.1066C4.40016 19.1066 1.8014 16.3898 1.8014 13.0444C1.8014 9.69889 4.40016 6.97781 7.59373 6.97781C10.7873 6.97781 13.3861 9.70311 13.3861 13.0444C13.3861 16.3856 10.7873 19.1066 7.59373 19.1066ZM13.3861 7.96498C12.6888 7.09858 11.807 6.39868 10.805 5.91626C9.80291 5.43384 8.70585 5.18109 7.59373 5.17641C3.40453 5.17641 0 8.70326 0 13.0444C0 17.3855 3.40453 20.9123 7.59373 20.9123C8.7045 20.9096 9.8007 20.6595 10.8027 20.1801C11.8046 19.7006 12.6872 19.0039 13.3861 18.1406V18.8241C13.3962 20.4208 12.7724 21.9562 11.6517 23.0936C10.531 24.231 9.0048 24.8771 7.40811 24.8906C6.54602 24.8904 5.69443 24.7014 4.91316 24.3369C4.13186 23.9726 3.43982 23.4416 2.88563 22.7812H0.691873C1.36923 23.9655 2.34662 24.9506 3.52564 25.6371C4.70468 26.3237 6.04376 26.6874 7.40811 26.6919C9.48516 26.6775 11.4714 25.8388 12.9302 24.3602C14.389 22.8816 15.2009 20.8841 15.1875 18.8072V5.61094H13.3861V7.96498ZM20.5579 7.58951C21.1672 6.93752 21.9032 6.41676 22.7207 6.05912C23.5382 5.7015 24.4202 5.51452 25.3125 5.50969V7.31529C24.0446 7.32088 22.8307 7.82812 21.9358 8.72618C21.0409 9.62421 20.538 10.84 20.5369 12.1078V20.4482H18.7354V5.61094H20.5369L20.5579 7.58951ZM33.3872 6.97781C34.7944 6.97417 36.1588 7.46196 37.2448 8.35695C38.3308 9.25193 39.0703 10.498 39.3356 11.88H27.4219C27.6932 10.5009 28.4344 9.25854 29.5191 8.36466C30.6038 7.47077 31.9648 6.98064 33.3703 6.97781H33.3872ZM41.2762 13.6814L41.2425 12.749C41.1756 10.6841 40.2984 8.72852 38.8007 7.30543C37.3029 5.88236 35.3049 5.10626 33.2394 5.14509C31.1737 5.18391 29.2063 6.03452 27.7631 7.51286C26.3199 8.99119 25.5169 10.9784 25.5276 13.0444C25.5521 15.1491 26.4092 17.1585 27.9113 18.6329C29.4135 20.1075 31.4385 20.9269 33.5432 20.9123C35.1229 20.9151 36.6684 20.454 37.9884 19.5863C39.3084 18.7186 40.3446 17.4825 40.9682 16.0312H38.9516C38.3948 16.9703 37.6026 17.7478 36.6534 18.2872C35.7041 18.8265 34.6307 19.1091 33.5391 19.1066C32.0197 19.1222 30.5481 18.5776 29.4049 17.5769C28.2617 16.5761 27.5273 15.1893 27.3416 13.6814H41.2635H41.2762Z" fill="#7D7D7D"/>
</svg>
