<svg width="93" height="28" viewBox="0 0 93 28" fill="none" xmlns="http://www.w3.org/2000/svg">
<path d="M0 19.8059V0.410339H3.43062V19.8059H0Z" fill="#7D7D7D"/>
<path d="M12.2124 5.73515C7.81386 5.73515 4.77002 9.09381 4.77002 12.9381C4.77002 17.2286 8.08137 20.1843 12.2466 20.1843C16.1995 20.1843 19.6298 17.283 19.6298 12.9289C19.6298 9.26745 16.7874 5.73515 12.2124 5.73515ZM12.172 9.02185C14.4738 9.02185 16.1682 10.8013 16.1682 12.9505C16.1682 15.2291 14.3001 16.8914 12.2341 16.8914C9.7929 16.8914 8.25658 14.9698 8.25658 12.9566C8.25658 10.7499 9.99112 9.02185 12.172 9.02185Z" fill="#7D7D7D"/>
<path d="M28.249 5.73515C23.8506 5.73515 20.8066 9.09381 20.8066 12.9381C20.8066 17.2286 24.118 20.1843 28.2833 20.1843C32.2362 20.1843 35.6665 17.283 35.6665 12.9289C35.6665 10.3648 34.5485 9.22714 34.5485 9.22714L35.4993 8.90331V6.13816H30.6269C30.6269 6.13816 29.5706 5.73515 28.249 5.73515ZM28.2087 9.02185C30.5106 9.02185 32.2049 10.8013 32.2049 12.9505C32.2049 15.2291 30.3369 16.8914 28.2709 16.8914C25.8296 16.8914 24.2933 14.9698 24.2933 12.9566C24.2933 10.7499 26.0278 9.02185 28.2087 9.02185Z" fill="#7D7D7D"/>
<path d="M32.1808 20.7538C32.1808 23.0325 30.3128 24.7073 28.2468 24.7073C25.8055 24.7073 24.2631 22.7671 24.2631 20.7538H20.7827C20.7827 25.0444 24.0941 28 28.2591 28C32.2123 28 35.6425 25.108 35.6425 20.7538H32.1808Z" fill="#7D7D7D"/>
<path d="M37.0408 19.8059V6.13811H40.4714V19.8059H37.0408Z" fill="#7D7D7D"/>
<path d="M43.8025 19.8057V9.19935H41.9629V6.13793H43.8025V1.94084H47.2332V6.13793H49.1225V9.19935H47.2332V19.8057H43.8025Z" fill="#7D7D7D"/>
<path d="M41.0205 2.25614C41.0205 3.50218 40.0034 4.51228 38.7488 4.51228C37.4942 4.51228 36.4771 3.50218 36.4771 2.25614C36.4771 1.01011 37.4942 0 38.7488 0C40.0034 0 41.0205 1.01011 41.0205 2.25614Z" fill="#7D7D7D"/>
<path d="M56.8354 5.72586C52.4161 5.72586 49.5671 9.08627 49.5671 13.0615C49.5671 17.1695 52.4255 20.1934 56.9069 20.1934C61.0872 20.1934 63.1436 17.6012 63.1436 17.6012L60.8503 15.3205C60.8503 15.3205 59.1187 17.1753 56.9504 17.1753C55.1428 17.1753 53.6977 16.1734 53.1934 14.3361H63.8831V13.3979C63.8831 9.65446 61.7014 5.72586 56.8354 5.72586ZM56.7266 8.72554C58.307 8.72554 59.9232 9.56521 60.2847 11.5709H53.1002C53.3848 10.161 54.6267 8.72554 56.7266 8.72554Z" fill="#7D7D7D"/>
<path d="M72.464 20.1952C68.0321 20.1952 65.0122 16.8429 65.0122 12.8904C65.0122 8.81137 68.4252 5.72321 72.4497 5.72321C76.3402 5.72321 78.3316 8.45081 78.3316 8.45081L75.9384 10.8168C75.9384 10.8168 74.5522 9.03794 72.4334 9.03794C70.0851 9.03794 68.4792 10.822 68.4792 12.9427C68.4792 15.1819 70.1873 16.8999 72.407 16.8999C74.5599 16.8999 75.9351 15.1239 75.9351 15.1239L78.3523 17.4886C78.3523 17.4886 76.3801 20.1952 72.464 20.1952Z" fill="#7D7D7D"/>
<path d="M79.6006 19.8156V0.360779H83.0312V7.50856C83.0312 7.50856 84.3448 5.72312 87.2021 5.72312C90.7945 5.72312 92.8755 8.37514 92.8755 11.767V19.8156H89.4449V12.282C89.4449 10.0032 88.0164 9.05784 86.4338 9.05784C84.6308 9.05784 83.0312 10.0769 83.0312 12.4583V19.8156H79.6006Z" fill="#7D7D7D"/>
</svg>
