<svg width="132" height="34" viewBox="0 0 132 34" fill="none" xmlns="http://www.w3.org/2000/svg">
<path d="M22.0456 7.02506H25.5714L29.646 20.6892L33.7068 7.02506H36.821L31.1414 27H28.1369L22.0456 7.02506ZM20.6188 7.02506H23.98L24.5013 20.1954V27H20.6188V7.02506ZM35.2845 7.02506H38.6594V27H34.7906V20.1954L35.2845 7.02506ZM55.9728 15.4623V18.796C55.9728 20.2045 55.7991 21.4392 55.4515 22.5002C55.1131 23.5519 54.6284 24.4345 53.9973 25.1479C53.3754 25.8522 52.6208 26.3826 51.7337 26.7393C50.8556 27.096 49.8816 27.2744 48.8115 27.2744C47.7414 27.2744 46.7628 27.096 45.8756 26.7393C44.9976 26.3826 44.2385 25.8522 43.5983 25.1479C42.9672 24.4345 42.4779 23.5519 42.1303 22.5002C41.7828 21.4392 41.609 20.2045 41.609 18.796V15.4623C41.609 14.0172 41.7782 12.7551 42.1166 11.6758C42.455 10.5874 42.9443 9.68199 43.5845 8.95945C44.2248 8.22777 44.9839 7.67901 45.8619 7.31316C46.7399 6.93818 47.714 6.75068 48.7841 6.75068C49.8541 6.75068 50.8282 6.93818 51.7062 7.31316C52.5842 7.67901 53.3434 8.22777 53.9836 8.95945C54.6238 9.68199 55.1131 10.5874 55.4515 11.6758C55.7991 12.7551 55.9728 14.0172 55.9728 15.4623ZM51.9806 18.796V15.4348C51.9806 14.4837 51.912 13.6742 51.7748 13.0066C51.6376 12.3298 51.4318 11.7764 51.1575 11.3466C50.8831 10.9167 50.5492 10.6012 50.156 10.4C49.7627 10.1987 49.3054 10.0981 48.7841 10.0981C48.2627 10.0981 47.8009 10.1987 47.3984 10.4C47.0052 10.6012 46.6713 10.9167 46.3969 11.3466C46.1317 11.7764 45.9305 12.3298 45.7933 13.0066C45.6653 13.6742 45.6012 14.4837 45.6012 15.4348V18.796C45.6012 19.7106 45.6698 20.4926 45.807 21.142C45.9442 21.7913 46.15 22.3218 46.4244 22.7334C46.6988 23.1449 47.0326 23.4513 47.4259 23.6526C47.8283 23.8446 48.2902 23.9407 48.8115 23.9407C49.3237 23.9407 49.7764 23.8446 50.1697 23.6526C50.5721 23.4513 50.9059 23.1449 51.1712 22.7334C51.4364 22.3218 51.6376 21.7913 51.7748 21.142C51.912 20.4926 51.9806 19.7106 51.9806 18.796ZM64.8079 22.7334L68.5944 7.02506H72.9296L67.1401 27H64.218L64.8079 22.7334ZM61.5702 7.02506L65.3429 22.7334L65.9603 27H63.0244L57.2761 7.02506H61.5702ZM81.0238 10.592L76.7298 27H72.4906L78.7327 7.02506H81.3805L81.0238 10.592ZM84.4124 27L80.0909 10.592L79.6931 7.02506H82.382L88.679 27H84.4124ZM84.5633 19.5506V22.8843H75.5499V19.5506H84.5633ZM97.322 18.2884H93.2338L93.2201 15.38H96.7047C97.2535 15.38 97.7016 15.2885 98.0492 15.1056C98.4059 14.9135 98.6665 14.6346 98.8311 14.2687C99.0049 13.8937 99.0918 13.441 99.0918 12.9105C99.0918 12.2978 99.0141 11.8084 98.8586 11.4426C98.7031 11.0676 98.4516 10.7932 98.104 10.6195C97.7565 10.4457 97.3038 10.3588 96.7458 10.3588H94.6057V27H90.586V7.02506H96.7458C97.7428 7.02506 98.6345 7.13482 99.4211 7.35432C100.208 7.57383 100.875 7.90766 101.424 8.35581C101.973 8.80397 102.389 9.37102 102.672 10.057C102.965 10.7429 103.111 11.5524 103.111 12.4852C103.111 13.3084 102.947 14.0675 102.618 14.7626C102.288 15.4577 101.772 16.0248 101.067 16.4638C100.372 16.9028 99.4622 17.1497 98.3373 17.2046L97.322 18.2884ZM97.1849 27H92.0951L93.7002 23.68H97.1849C97.7153 23.68 98.1452 23.5657 98.4744 23.337C98.8037 23.1084 99.0415 22.802 99.1878 22.4178C99.3342 22.0246 99.4073 21.5764 99.4073 21.0734C99.4073 20.5063 99.3387 20.0124 99.2016 19.5917C99.0735 19.171 98.8586 18.8509 98.5568 18.6314C98.2549 18.4027 97.8479 18.2884 97.3358 18.2884H93.8786L93.906 15.38H98.104L99.0506 16.5324C100.121 16.4958 100.976 16.7016 101.616 17.1497C102.256 17.5887 102.714 18.1649 102.988 18.8783C103.272 19.5826 103.413 20.3325 103.413 21.1282C103.413 22.4087 103.171 23.4879 102.686 24.3659C102.211 25.2348 101.511 25.8933 100.587 26.3415C99.6634 26.7805 98.5293 27 97.1849 27ZM117.448 23.68V27H109.148V23.68H117.448ZM110.383 7.02506V27H106.363V7.02506H110.383ZM131.263 23.68V27H122.579V23.68H131.263ZM123.827 7.02506V27H119.808V7.02506H123.827ZM130.097 15.1193V18.3433H122.579V15.1193H130.097ZM131.236 7.02506V10.3588H122.579V7.02506H131.236Z" fill="white"/>
<path d="M7.8291 16.8046L20.5116 16.8046L7.8291 16.8046Z" fill="white"/>
<path d="M7.8291 16.8046L20.5116 16.8046" stroke="white" stroke-width="1.75604" stroke-linecap="round"/>
<path d="M1 12.1642L20.5115 12.1642L1 12.1642Z" fill="white"/>
<path d="M1 12.1642L20.5115 12.1642" stroke="white" stroke-width="1.75604" stroke-linecap="round"/>
<path d="M7.98877 26.2125L20.6713 26.2125L7.98877 26.2125Z" fill="white"/>
<path d="M7.98877 26.2125L20.6713 26.2125" stroke="white" stroke-width="1.75604" stroke-linecap="round"/>
<path d="M11.7314 8.00171L20.5116 8.00171L11.7314 8.00171Z" fill="white"/>
<path d="M11.7314 8.00171L20.5116 8.00171" stroke="white" stroke-width="1.75604" stroke-linecap="round"/>
<path d="M14.6582 21.4873L20.5117 21.4873L14.6582 21.4873Z" fill="white"/>
<path d="M14.6582 21.4873L20.5117 21.4873" stroke="white" stroke-width="1.75604" stroke-linecap="round"/>
</svg>
