<svg width="70" height="70" viewBox="0 0 70 70" fill="none" xmlns="http://www.w3.org/2000/svg">
<rect width="70" height="70" fill="white"/>
<path d="M22.25 27.9167C20.6775 27.9167 19.4167 29.1776 19.4167 30.7501V42.0834H22.25C22.25 43.2106 22.6978 44.2916 23.4948 45.0886C24.2918 45.8856 25.3728 46.3334 26.5 46.3334C27.6272 46.3334 28.7082 45.8856 29.5052 45.0886C30.3023 44.2916 30.75 43.2106 30.75 42.0834H39.25C39.25 43.2106 39.6978 44.2916 40.4948 45.0886C41.2918 45.8856 42.3729 46.3334 43.5 46.3334C44.6272 46.3334 45.7082 45.8856 46.5052 45.0886C47.3023 44.2916 47.75 43.2106 47.75 42.0834H50.5834V36.4167C50.5834 34.8442 49.3225 33.5834 47.75 33.5834L43.5 27.9167H22.25ZM39.25 30.0417H42.7917L45.5684 33.5834H39.25V30.0417ZM26.5 39.9584C27.0636 39.9584 27.6041 40.1823 28.0026 40.5808C28.4011 40.9793 28.625 41.5198 28.625 42.0834C28.625 42.647 28.4011 43.1875 28.0026 43.586C27.6041 43.9845 27.0636 44.2084 26.5 44.2084C25.9364 44.2084 25.3959 43.9845 24.9974 43.586C24.5989 43.1875 24.375 42.647 24.375 42.0834C24.375 41.5198 24.5989 40.9793 24.9974 40.5808C25.3959 40.1823 25.9364 39.9584 26.5 39.9584ZM43.5 39.9584C44.0636 39.9584 44.6041 40.1823 45.0026 40.5808C45.4011 40.9793 45.625 41.5198 45.625 42.0834C45.625 42.647 45.4011 43.1875 45.0026 43.586C44.6041 43.9845 44.0636 44.2084 43.5 44.2084C42.9364 44.2084 42.3959 43.9845 41.9974 43.586C41.5989 43.1875 41.375 42.647 41.375 42.0834C41.375 41.5198 41.5989 40.9793 41.9974 40.5808C42.3959 40.1823 42.9364 39.9584 43.5 39.9584Z" fill="#524632"/>
</svg>
