<svg width="70" height="70" viewBox="0 0 70 70" fill="none" xmlns="http://www.w3.org/2000/svg">
<rect width="70" height="70" fill="white"/>
<path d="M46.3334 23.6667H23.6667C22.0942 23.6667 20.8475 24.9276 20.8475 26.5001L20.8334 43.5001C20.8334 45.0726 22.0942 46.3334 23.6667 46.3334H46.3334C47.9059 46.3334 49.1667 45.0726 49.1667 43.5001V26.5001C49.1667 24.9276 47.9059 23.6667 46.3334 23.6667ZM33.5834 32.1667H29.3334V33.5834H33.5834C34.3625 33.5834 35 34.2209 35 35.0001V39.2501C35 40.0292 34.3625 40.6667 33.5834 40.6667H32.1667C32.1667 41.4459 31.5292 42.0834 30.75 42.0834C29.9709 42.0834 29.3334 41.4459 29.3334 40.6667H27.9167C27.1375 40.6667 26.5 40.0292 26.5 39.2501C26.5 38.4709 27.1375 37.8334 27.9167 37.8334H32.1667V36.4167H27.9167C27.1375 36.4167 26.5 35.7792 26.5 35.0001V30.7501C26.5 29.9709 27.1375 29.3334 27.9167 29.3334H29.3334C29.3334 28.5542 29.9709 27.9167 30.75 27.9167C31.5292 27.9167 32.1667 28.5542 32.1667 29.3334H33.5834C34.3625 29.3334 35 29.9709 35 30.7501C35 31.5292 34.3625 32.1667 33.5834 32.1667ZM40.1709 40.5251L37.8334 38.1876H43.5L41.1625 40.5251C40.8934 40.7942 40.44 40.7942 40.1709 40.5251ZM37.8334 32.1667L40.1709 29.8292C40.4542 29.5459 40.8934 29.5459 41.1767 29.8292L43.5 32.1667H37.8334Z" fill="#524632"/>
</svg>
