<svg width="70" height="70" viewBox="0 0 70 70" fill="none" xmlns="http://www.w3.org/2000/svg">
<rect width="70" height="70" fill="white"/>
<g clip-path="url(#clip0_3228_119)">
<path d="M34.5 20.8333C42.0941 20.8333 48.25 27.1757 48.25 34.9999C48.25 42.8242 42.0941 49.1666 34.5 49.1666C26.9059 49.1666 20.75 42.8242 20.75 34.9999C20.75 27.1757 26.9059 20.8333 34.5 20.8333ZM37.25 36.9833L35.0995 38.7555C35.024 38.8178 34.9621 38.8957 34.9179 38.9843C34.8736 39.0729 34.848 39.1701 34.8427 39.2695C34.8373 39.369 34.8525 39.4685 34.887 39.5615C34.9215 39.6546 34.9747 39.7391 35.0431 39.8095L36.7467 41.5648C37.0766 41.9051 37.317 42.3263 37.4452 42.7888L37.6859 43.6572C37.7856 44.0215 37.9629 44.3584 38.2048 44.6434C38.4466 44.9284 38.7471 45.1543 39.0842 45.3048C40.3995 44.6821 41.583 43.7988 42.5671 42.7052L42.2454 40.0461C42.1891 39.5835 42.0228 39.1423 41.7614 38.7617C41.4999 38.3812 41.1514 38.0729 40.7466 37.8644L38.7254 36.8218C38.4902 36.7005 38.2262 36.6513 37.9647 36.6799C37.7032 36.7085 37.4552 36.8138 37.25 36.9833ZM34.5 23.6666C32.8171 23.6651 31.1563 24.0622 29.646 24.8271C28.1357 25.592 26.8162 26.7043 25.7894 28.0781L25.5625 28.3912V30.7783C25.5623 31.6431 25.8183 32.4875 26.2961 33.1985C26.774 33.9096 27.4511 34.4535 28.2369 34.7577L28.4816 34.8427L30.2554 35.4023C32.1433 35.9973 33.9816 34.4148 33.7987 32.4329L33.7726 32.2275L33.532 30.7414C33.4788 30.4122 33.5402 30.0743 33.7052 29.7871C33.8702 29.4999 34.1283 29.282 34.434 29.1718L34.5825 29.1293L35.424 28.9309C35.9015 28.8185 36.3522 28.6086 36.7497 28.3138C37.1471 28.0189 37.4832 27.6451 37.7381 27.2142C37.993 26.7833 38.1616 26.3042 38.2339 25.8051C38.3061 25.306 38.2806 24.7971 38.1589 24.3083C36.9834 23.8821 35.7461 23.6651 34.5 23.6666Z" fill="#524632"/>
</g>
<defs>
<clipPath id="clip0_3228_119">
<rect width="33" height="34" fill="white" transform="translate(18 18)"/>
</clipPath>
</defs>
</svg>
