<svg width="70" height="70" viewBox="0 0 70 70" fill="none" xmlns="http://www.w3.org/2000/svg">
<rect width="70" height="70" fill="white"/>
<path d="M35 36.4166C35.8476 36.4165 36.6759 36.6699 37.3784 37.1442C38.0809 37.6185 38.6255 38.292 38.9423 39.0782C39.2591 39.8644 39.3335 40.7273 39.1561 41.5561C38.9787 42.385 38.5575 43.1418 37.9467 43.7294L35.2409 46.3333H39.25V49.1666H30.75V46.7243L35.9818 41.688C36.1506 41.5257 36.2766 41.3242 36.3484 41.1013C36.4202 40.8784 36.4357 40.6412 36.3934 40.4109C36.3512 40.1806 36.2525 39.9644 36.1062 39.7816C35.9599 39.5987 35.7705 39.455 35.5551 39.3633C35.3397 39.2715 35.1049 39.2346 34.8717 39.2558C34.6385 39.2771 34.4142 39.3557 34.2189 39.4849C34.0235 39.614 33.8632 39.7895 33.7523 39.9957C33.6414 40.2019 33.5834 40.4324 33.5834 40.6666H30.75C30.75 39.5394 31.1978 38.4584 31.9948 37.6614C32.7919 36.8644 33.8729 36.4166 35 36.4166ZM43.5 36.4166V42.0833H46.3334V36.4166H49.1667V49.1666H46.3334V44.9166H40.6667V36.4166H43.5ZM23.6667 34.9999C23.665 36.6993 24.0461 38.3773 24.7819 39.9092C25.5177 41.4411 26.5891 42.7875 27.9167 43.8484V47.2711C25.7623 46.028 23.9733 44.2394 22.7298 42.0852C21.4863 39.931 20.8322 37.4873 20.8334 34.9999H23.6667ZM35 20.8333C42.3455 20.8333 48.3861 26.4248 49.0959 33.5833H46.2455C45.9575 31.2992 44.9808 29.157 43.4454 27.4417C41.91 25.7263 39.8886 24.5192 37.6503 23.9809C35.412 23.4426 33.0628 23.5986 30.9153 24.4282C28.7678 25.2578 26.9239 26.7216 25.6288 28.6249H29.3334V31.4583H20.8334V22.9583H23.6667V26.4999C24.9848 24.7388 26.6956 23.3096 28.663 22.3259C30.6305 21.3421 32.8003 20.8311 35 20.8333Z" fill="#524632"/>
</svg>
