<svg width="70" height="70" viewBox="0 0 70 70" fill="none" xmlns="http://www.w3.org/2000/svg">
<rect width="70" height="70" fill="white"/>
<path d="M45.0159 24.7787L43.0184 26.7175C45.1414 28.7834 46.3336 31.5822 46.3334 34.5C46.3334 40.5775 41.2617 45.5 35 45.5C28.7384 45.5 23.6667 40.5775 23.6667 34.5C23.6667 28.89 27.9875 24.27 33.5834 23.5963V26.3738C29.56 27.0338 26.5 30.4163 26.5 34.5C26.5 39.0513 30.3109 42.75 35 42.75C39.6892 42.75 43.5 39.0513 43.5 34.5C43.5 32.2175 42.5509 30.155 41.0067 28.67L39.0092 30.6088C40.0292 31.6125 40.6667 32.9875 40.6667 34.5C40.6667 37.5387 38.1309 40 35 40C31.8692 40 29.3334 37.5387 29.3334 34.5C29.3334 31.9425 31.1467 29.8113 33.5834 29.1925V32.135C32.7334 32.6163 32.1667 33.4825 32.1667 34.5C32.1667 36.0125 33.4417 37.25 35 37.25C36.5584 37.25 37.8334 36.0125 37.8334 34.5C37.8334 33.4825 37.2667 32.6025 36.4167 32.135V20.75H35C27.18 20.75 20.8334 26.91 20.8334 34.5C20.8334 42.09 27.18 48.25 35 48.25C42.82 48.25 49.1667 42.09 49.1667 34.5C49.1667 30.705 47.58 27.2675 45.0159 24.7787Z" fill="#524632"/>
</svg>
